<svg xmlns="http://www.w3.org/2000/svg" width="1914" height="787" fill="none"><path fill="#fff" fill-opacity=".6" d="M262 449a4 4 0 1 1-8 0 4 4 0 0 1 8 0ZM250 332a4 4 0 1 1-8 0 4 4 0 0 1 8 0ZM17 608c0 3-1 4-4 4a4 4 0 1 1 4-4ZM378 631c0 2-2 3-4 3-1 0-3-1-3-3a3 3 0 1 1 7 0ZM1416 363c0 2-2 4-4 4a4 4 0 0 1 0-9c2 0 4 2 4 5ZM1053 304a4 4 0 1 1-8 0 4 4 0 0 1 8 0ZM1376 652c0 1-1 3-3 3s-4-2-4-3c0-2 2-4 4-4s3 2 3 4ZM896 671a4 4 0 1 1-8 0 4 4 0 0 1 8 0ZM596 49c0 2-2 4-4 4a4 4 0 0 1 0-9c2 0 4 2 4 5ZM1002 599a3 3 0 1 1-7 0c0-1 1-3 3-3s4 2 4 3ZM1251 565c0 2-2 3-3 3-2 0-4-1-4-3s2-3 4-3c1 0 3 1 3 3ZM1694 543a4 4 0 1 1-8 0 4 4 0 0 1 8 0ZM1503 294a4 4 0 1 1-8 0 4 4 0 0 1 8 0ZM618 54a4 4 0 1 1-8 0 4 4 0 0 1 8 0ZM339 721a4 4 0 1 1-8 0 4 4 0 0 1 8 0ZM618 183c0 2-1 3-3 3s-3-1-3-3 1-3 3-3 3 1 3 3ZM1475 644h6a4 4 0 1 1-6 6v-6ZM1431 714a4 4 0 0 1 6 6c-2 2-4 2-6 0v-6ZM1016 674a4 4 0 1 1-8 0c0-2 2-4 4-4s4 2 4 4ZM851 642a4 4 0 1 1-8 0 4 4 0 0 1 8 0ZM577 740a4 4 0 1 1-8 0 4 4 0 0 1 8 0ZM905 725a3 3 0 1 1-6 0 3 3 0 1 1 6 0ZM1596 161a4 4 0 1 1 6 6 4 4 0 0 1-6-6ZM1568 485a4 4 0 1 1 5 6 4 4 0 0 1-5-6ZM1736 652a4 4 0 1 1 6 6h-6v-6ZM1505 781h4v5h-4c-2-2-2-4 0-5ZM1396 723h5v5h-5v-5ZM509 613c2-2 5-2 6 0 2 1 2 4 0 5-1 2-4 2-6 0v-5ZM1425 509c0 2-1 3-3 3s-3-1-3-3a3 3 0 0 1 6 0ZM1165 301c-2 2-5 2-6 0-2-1-2-4 0-5 1-2 4-2 6 0v5ZM1851 442a4 4 0 1 1-8 0 4 4 0 0 1 8 0ZM1696 715c0 2-1 4-3 4s-3-2-3-4c0-1 1-3 3-3s3 2 3 3ZM1775 383a3 3 0 1 1-4-4 3 3 0 0 1 4 4ZM1253 648h6a4 4 0 1 1-6 6v-6ZM1249 726c2-2 5-2 6 0 2 2 2 4 0 6h-6v-6ZM434 479h4v5h-4c-2-1-2-4 0-5ZM466 740h6a4 4 0 1 1-6 0ZM1878 309a4 4 0 1 1-8 0 4 4 0 0 1 8 0ZM1912 549a4 4 0 1 1-8 0 4 4 0 0 1 8 0ZM1738 575a3 3 0 0 1-7 0c0-2 2-4 3-4 2 0 4 2 4 4ZM1617 676c0 1-1 3-3 3s-3-2-3-3a3 3 0 0 1 6 0ZM1887 735c0 2-2 4-4 4-1 0-3-2-3-4l3-3c2 0 4 2 4 3ZM1780 729c2-2 5-2 6 0 2 2 2 4 0 6h-6v-6ZM1839 609c0 2-1 3-3 3s-3-1-3-3 1-3 3-3 3 1 3 3ZM67 393a4 4 0 1 1-8 0 4 4 0 0 1 8 0ZM29 440a3 3 0 1 1-6 0 3 3 0 0 1 6 0ZM534 622c2-2 4-2 5 0v4h-5v-4ZM1596 250a3 3 0 1 1-7 0 3 3 0 0 1 7 0ZM1566 375c0 2-1 3-3 3s-3-1-3-3a3 3 0 0 1 6 0ZM208-3a4 4 0 1 1-8 0 4 4 0 0 1 8 0ZM1713 585a4 4 0 1 1 5 6 4 4 0 0 1-5-6ZM1898 73c0 2-1 3-3 3s-3-1-3-3 1-3 3-3 3 1 3 3ZM1721 56a3 3 0 1 1-7 0 3 3 0 0 1 7 0ZM1818 120a4 4 0 1 1 5 5 4 4 0 0 1-5-5ZM181 588a4 4 0 1 1-8 0 4 4 0 0 1 8 0ZM29 708c0 2-2 4-4 4-3 0-4-2-4-4s1-4 4-4c2 0 4 2 4 4ZM323 672c0 2-1 3-3 3s-3-1-3-3a3 3 0 1 1 6 0ZM1214 615a4 4 0 1 1-8 0 4 4 0 0 1 8 0ZM1268 675a3 3 0 1 1-7 0c0-2 2-4 4-4 1 0 3 2 3 4ZM890 535c0 2-2 4-4 4-3 0-4-2-4-4 0-3 1-4 4-4 2 0 4 1 4 4ZM847 727a4 4 0 1 1-8 0 4 4 0 0 1 8 0ZM1097 625c0 2-1 3-3 3s-3-1-3-3a3 3 0 0 1 6 0ZM1577 632a4 4 0 1 1-8 0 4 4 0 0 1 8 0ZM1564 662c0 2-2 3-3 3a3 3 0 1 1 0-6c1 0 3 1 3 3ZM287 724a4 4 0 1 1-8 0 4 4 0 0 1 8 0ZM635 671c1-2 4-2 6 0v5c-2 2-5 2-6 0-2-1-2-4 0-5ZM1223 384c-1 2-3 2-4 0-2-1-2-3 0-4a3 3 0 0 1 4 4ZM1799 527c0 3-2 4-4 4s-4-1-4-4c0-2 2-4 4-4s4 2 4 4ZM1804 666a3 3 0 0 1-7 0 3 3 0 0 1 7 0ZM104 249a4 4 0 1 1-8 0 4 4 0 0 1 8 0ZM1215 241a3 3 0 1 1-7 0 3 3 0 0 1 7 0ZM709 79h6c2 2 2 5 0 6-2 2-4 2-6 0v-6ZM1296 59a3 3 0 1 1-4-4 3 3 0 0 1 4 4ZM125 117a4 4 0 1 1 5 6 4 4 0 1 1-5-6ZM149 150h4c2 1 2 3 0 5h-4v-5ZM1469 72a3 3 0 1 1-7 0 3 3 0 0 1 7 0ZM1456 199a3 3 0 1 1-6 0 3 3 0 0 1 6 0ZM1735 198h6a4 4 0 1 1-6 0ZM1779 228c2-2 4-2 5 0v4h-5v-4ZM1881 99h4v5h-4c-2-1-2-3 0-5ZM1907 108h4v5h-4c-2-1-2-3 0-5ZM1706 438a4 4 0 1 1 8 0 4 4 0 0 1-8 0ZM1440 431c-1 2-3 2-4 0-2-1-2-3 0-4h4c2 1 2 3 0 4ZM204 617c2-2 4-2 6 0s2 4 0 6h-6v-6ZM145 383h4a3 3 0 1 1-4 0ZM505 726a4 4 0 1 1 6 6 4 4 0 1 1-6-6ZM264 625c2-2 4-2 5 0a3 3 0 1 1-5 0ZM127 753h5v5h-5v-5ZM50 662a3 3 0 1 1 5 5 3 3 0 0 1-5-5ZM1055 457l-23 2c-1 1 4 7 9 12-5-5-11-10-12-9l-2 23-2-23c-1-1-8 4-12 9l9-12-23-2 23-2-9-12c4 4 11 10 12 9l2-23 2 23 12-9c-5 4-10 11-9 12l23 2ZM1493 451l-23 2c-1 1 4 7 9 12-5-5-11-10-12-9l-2 23-2-23c-1-1-8 4-12 9l9-12-23-2 23-2-9-12c4 4 11 10 12 9l2-23 2 23 12-9c-5 4-10 11-9 12l23 2ZM1376 746l-23 3c-1 1 5 7 9 11l-12-9-2 23-2-23-12 9c4-4 10-10 9-11 0-2-16-3-23-3l23-2c1-1-5-7-9-12 4 5 11 10 12 9l2-23 2 23c1 1 8-4 12-9l-9 12 23 2ZM847 185l-37 3c-1 2 8 12 15 20-7-8-18-16-20-15s-3 26-3 37c0-11-2-36-4-37-1-1-12 7-19 15 7-8 16-18 15-20s-27-3-38-3c11 0 37-2 38-4 1-1-8-12-15-19 7 7 18 16 19 15 2-1 4-27 4-38l3 38c2 1 13-8 20-15-7 7-16 18-15 19 1 2 26 4 37 4ZM825 682c-11 0-37 2-38 4-1 1 8 12 15 19-7-7-17-16-19-15s-4 27-4 38l-3-38c-2-1-12 8-20 15 8-7 16-17 15-19s-26-4-37-4l37-3c1-2-7-13-15-20 8 7 18 16 20 15l3-37c0 10 2 36 4 37 1 1 12-8 19-15-7 7-15 18-15 20l38 3ZM1858 706l-23 2 9 12c-4-4-10-10-12-9l-2 23-2-23-12 9c5-4 10-11 9-12l-23-2 23-2c1-1-4-8-9-12 5 4 11 10 12 9l2-23 2 23c1 1 8-5 12-9l-9 12 23 2ZM1914 644l-31 3c-1 2 6 10 12 16-6-6-15-13-16-12-2 1-3 22-3 31l-3-31c-1-1-10 6-16 12 6-6 13-14 12-16l-31-3c9 0 31-1 31-3 1-1-6-10-12-16 6 6 15 14 16 13l3-31 3 31 16-13c-6 6-13 15-12 16 0 2 22 3 31 3ZM454 186l-37 3c-1 2 8 13 15 20-7-7-18-16-19-15-2 1-4 26-4 37l-3-37c-2-1-12 8-19 15 7-8 15-18 14-20l-37-3c11 0 36-2 37-4 1-1-7-12-14-19 7 7 17 16 19 15l3-37c0 11 2 36 4 37 1 1 12-8 19-15-7 7-16 18-15 19 1 2 26 4 37 4ZM706 594l-23 2c-1 1 5 7 9 12-4-5-11-10-12-9l-2 23-2-23c-1-1-8 4-12 9l9-12-23-2 23-2-9-12c4 4 11 10 12 9l2-23 2 23 12-9c-4 4-10 11-9 12l23 2ZM387 690l-23 2c-1 1 5 7 9 12-4-5-11-10-12-9l-2 23-2-23c-1-1-8 4-12 9 4-5 10-11 9-12l-23-2 23-2-9-12c4 4 11 10 12 9l2-23 2 23 12-9c-4 4-10 11-9 12l23 2ZM304 515l-23 2c0 1 5 8 10 12-5-4-11-10-12-9-2 1-3 17-3 23l-2-23-12 9c5-4 10-11 10-12l-24-2 24-2c0-1-5-8-10-12 5 4 11 10 12 9l2-23 3 23c1 1 7-5 12-9-5 4-10 11-10 12l23 2ZM1324 702l-23 2c-1 1 4 8 9 12-5-4-11-10-12-9l-2 23-2-23c-1-1-8 5-12 9l9-12-23-2 23-2-9-12c4 4 11 10 12 9l2-23 2 23 12-9c-5 4-10 11-9 12l23 2ZM1492 687l-32 3c-1 2 7 11 13 17-6-6-15-14-17-13l-2 32c0-9-2-31-4-32l-16 13c6-6 13-15 13-17l-32-3c9 0 31-1 32-3l-13-16c6 6 15 14 16 13 2-1 4-23 4-32l2 32c2 0 11-7 17-13l-13 16c1 2 23 3 32 3ZM1734 241l-23 2 9 12c-4-5-10-10-11-10-2 1-3 17-3 24l-2-24-12 10c5-5 10-11 9-12l-23-2 23-3-9-12 12 10 2-23 3 23 11-9-9 11 23 3ZM1816 70c-11 0-39 2-40 4-2 2 8 13 16 21-8-8-19-17-21-16s-4 29-4 40c0-11-2-39-4-40s-13 8-21 16c8-8 17-19 16-21s-29-4-40-4c11 0 39-2 40-4 1-1-8-13-16-21 8 8 19 18 21 16 2-1 4-29 4-40 0 11 2 39 4 40 1 1 13-8 21-16-8 8-17 19-16 21 0 2 29 4 40 4ZM1414 168l-23 2c-1 1 5 8 9 12-4-4-11-10-12-9l-2 23-2-23-12 9c4-4 10-11 9-12l-23-2 23-2-9-12c4 4 11 10 12 9l2-23 2 23c1 1 8-5 12-9-4 4-10 11-9 12l23 2ZM343 161l-23 3c-1 1 5 7 9 11l-12-9-2 23-2-23-12 9c4-4 10-10 9-11 0-2-16-3-23-3l23-2c1-1-5-7-9-12 4 5 11 10 12 9l2-23 2 23c1 1 8-4 12-9l-9 12 23 2ZM1160 155l-23 2c-1 1 5 8 9 12-4-4-11-10-12-9l-2 23-2-23c-1-1-8 5-12 9 4-4 10-11 9-12l-23-2 23-2c1-1-5-8-9-12 4 4 11 10 12 9l2-23 2 23 12-9-9 12 23 2ZM1213 668l-23 3c-1 1 5 7 9 11l-12-9-2 23-2-23-12 9c4-4 10-10 9-11 0-2-16-3-23-3l23-2c1-1-5-7-9-12 4 5 11 10 12 9l2-23 2 23c1 1 8-4 12-9l-9 12 23 2ZM951 699h-23c-1 1 4 8 8 13-4-5-10-11-11-10l-4 23v-23c-1-1-8 4-13 8 5-4 10-10 10-11l-23-4h23c1-1-4-8-8-13 4 5 10 11 11 10l4-23c-1 7 0 23 1 23l12-8c-5 4-10 10-10 11l23 4ZM821 742l-23 2c-1 1 5 7 9 12-4-5-11-10-12-9l-2 23-2-23c-1-1-8 4-12 9l9-12-23-2 23-2-9-12c4 4 11 10 12 9l2-23 2 23 12-9c-4 4-10 11-9 12l23 2ZM1142 700l-23 2c-1 1 5 8 9 12-4-4-11-10-12-9l-2 23-2-23c-1-1-8 5-12 9l9-12-23-2 23-2-9-12c4 4 11 10 12 9l2-23 2 23c1 1 8-5 12-9-4 4-10 11-9 12l23 2ZM1001 718l-23 2c-1 1 5 8 9 12-4-5-10-10-12-9l-2 23-2-23c-1-1-7 5-12 9 5-5 10-11 9-12l-23-2 23-2c1-1-4-8-9-12 5 4 11 10 12 9l2-23 2 23 12-9-9 12 23 2ZM86 505l-23 2 9 12c-4-5-10-10-11-9-2 0-3 16-3 23l-2-23c-1-1-7 4-12 9 5-5 10-11 9-12l-23-2 23-3c1 0-4-7-9-11l12 9 2-23 3 23 11-9-9 11 23 3ZM166 627c-12 0-41 2-42 4-2 2 8 13 16 21-8-8-19-17-21-16s-4 30-4 42c0-12-2-41-4-42s-14 8-22 16c8-8 18-19 17-21s-30-4-42-4c12 0 41-2 42-4s-9-14-17-22c8 8 20 18 22 17 1-1 4-30 4-42 0 12 2 41 4 42 1 1 13-9 21-17-8 8-17 20-16 22s30 4 42 4ZM187 302l-30 3c-1 1 6 10 12 16-6-6-14-13-16-12l-3 30-2-30c-2-1-10 6-16 12 6-6 13-15 12-16l-30-3c9 0 29-1 30-3 1-1-6-9-12-15 6 6 14 13 16 12l2-30 3 30c2 1 10-6 16-12-6 6-13 14-12 15 1 2 21 3 30 3ZM119 66l-23 3c-1 1 5 7 9 12-4-5-10-10-12-10l-2 24-2-24-12 10c5-5 10-11 9-12l-23-3 23-2c1-1-4-7-9-12l12 10 2-24 2 24c1 0 8-5 12-10l-9 12 23 2Z"/></svg>