<svg width="28" height="28" viewBox="0 0 28 28" fill="none" xmlns="http://www.w3.org/2000/svg">
<path d="M3.5 10.5C3.5 10.1906 3.62292 9.89383 3.84171 9.67504C4.0605 9.45624 4.35725 9.33333 4.66667 9.33333H23.3333C23.6428 9.33333 23.9395 9.45624 24.1583 9.67504C24.3771 9.89383 24.5 10.1906 24.5 10.5V12.8333C24.5 13.1427 24.3771 13.4395 24.1583 13.6583C23.9395 13.8771 23.6428 14 23.3333 14H4.66667C4.35725 14 4.0605 13.8771 3.84171 13.6583C3.62292 13.4395 3.5 13.1427 3.5 12.8333V10.5Z" stroke="#C4002B" stroke-width="1.5" stroke-linecap="round" stroke-linejoin="round"/>
<path d="M14 9.33333V24.5" stroke="#C4002B" stroke-width="1.5" stroke-linecap="round" stroke-linejoin="round"/>
<path d="M22.1666 14V22.1667C22.1666 22.7855 21.9208 23.379 21.4832 23.8166C21.0456 24.2542 20.4522 24.5 19.8333 24.5H8.16665C7.54781 24.5 6.95432 24.2542 6.51673 23.8166C6.07915 23.379 5.83331 22.7855 5.83331 22.1667V14" stroke="#C4002B" stroke-width="1.5" stroke-linecap="round" stroke-linejoin="round"/>
<path d="M8.74998 9.33334C7.97643 9.33334 7.23457 9.02605 6.68758 8.47907C6.1406 7.93209 5.83331 7.19022 5.83331 6.41667C5.83331 5.64313 6.1406 4.90126 6.68758 4.35428C7.23457 3.8073 7.97643 3.50001 8.74998 3.50001C9.87545 3.4804 10.9783 4.02648 11.9148 5.06703C12.8513 6.10758 13.578 7.59431 14 9.33334C14.422 7.59431 15.1486 6.10758 16.0851 5.06703C17.0216 4.02648 18.1245 3.4804 19.25 3.50001C20.0235 3.50001 20.7654 3.8073 21.3124 4.35428C21.8594 4.90126 22.1666 5.64313 22.1666 6.41667C22.1666 7.19022 21.8594 7.93209 21.3124 8.47907C20.7654 9.02605 20.0235 9.33334 19.25 9.33334" stroke="#C4002B" stroke-width="1.5" stroke-linecap="round" stroke-linejoin="round"/>
</svg>
