<svg width="28" height="28" viewBox="0 0 28 28" fill="none" xmlns="http://www.w3.org/2000/svg">
<path d="M3.5 10.4999C3.5 10.1905 3.62292 9.89375 3.84171 9.67496C4.0605 9.45617 4.35725 9.33325 4.66667 9.33325H23.3333C23.6428 9.33325 23.9395 9.45617 24.1583 9.67496C24.3771 9.89375 24.5 10.1905 24.5 10.4999V12.8333C24.5 13.1427 24.3771 13.4394 24.1583 13.6582C23.9395 13.877 23.6428 13.9999 23.3333 13.9999H4.66667C4.35725 13.9999 4.0605 13.877 3.84171 13.6582C3.62292 13.4394 3.5 13.1427 3.5 12.8333V10.4999Z" stroke="white" stroke-width="1.5" stroke-linecap="round" stroke-linejoin="round"/>
<path d="M14 9.33325V24.4999" stroke="white" stroke-width="1.5" stroke-linecap="round" stroke-linejoin="round"/>
<path d="M22.1667 14V22.1667C22.1667 22.7855 21.9209 23.379 21.4833 23.8166C21.0457 24.2542 20.4522 24.5 19.8334 24.5H8.16671C7.54787 24.5 6.95438 24.2542 6.51679 23.8166C6.07921 23.379 5.83337 22.7855 5.83337 22.1667V14" stroke="white" stroke-width="1.5" stroke-linecap="round" stroke-linejoin="round"/>
<path d="M8.75004 9.33335C7.97649 9.33335 7.23463 9.02606 6.68765 8.47908C6.14066 7.9321 5.83337 7.19024 5.83337 6.41669C5.83337 5.64314 6.14066 4.90127 6.68765 4.35429C7.23463 3.80731 7.97649 3.50002 8.75004 3.50002C9.87551 3.48041 10.9784 4.02649 11.9149 5.06704C12.8514 6.10759 13.578 7.59433 14 9.33335C14.4221 7.59433 15.1487 6.10759 16.0852 5.06704C17.0217 4.02649 18.1246 3.48041 19.25 3.50002C20.0236 3.50002 20.7655 3.80731 21.3124 4.35429C21.8594 4.90127 22.1667 5.64314 22.1667 6.41669C22.1667 7.19024 21.8594 7.9321 21.3124 8.47908C20.7655 9.02606 20.0236 9.33335 19.25 9.33335" stroke="white" stroke-width="1.5" stroke-linecap="round" stroke-linejoin="round"/>
</svg>
