<svg width="380" height="60" viewBox="0 0 380 60" fill="none" xmlns="http://www.w3.org/2000/svg">
<g clip-path="url(#clip0_12965_178565)">
<path d="M37.0001 35.75C36.311 35.75 35.7501 36.311 35.7501 37C35.7501 37.6891 36.3097 38.2485 36.9981 38.25H37.001C37.6897 38.2487 38.2501 37.6891 38.2501 37C38.25 36.311 37.689 35.7501 37.0001 35.75ZM55.0001 35.75C54.311 35.75 53.7501 36.3109 53.7501 37C53.7501 37.6891 54.3097 38.2485 54.9981 38.25H55.001C55.6897 38.2488 56.2501 37.6892 56.2501 37C56.2501 36.3109 55.6891 35.75 55.0001 35.75ZM54.2501 39.6396L54.084 39.5811C53.0163 39.1998 52.2501 38.1909 52.2501 37C52.2501 35.4841 53.4841 34.25 55.0001 34.25C56.516 34.25 57.7501 35.4841 57.7501 37C57.7501 38.1911 56.9835 39.1997 55.9161 39.5801L55.7501 39.6396V42C55.7501 47.376 51.3759 51.75 46.0001 51.75C40.6242 51.75 36.2501 47.376 36.2501 42V39.6396L36.084 39.5811C35.0163 39.1998 34.2501 38.1909 34.2501 37C34.2501 35.4841 35.4841 34.25 37.0001 34.25C38.516 34.25 39.7501 35.4841 39.7501 37C39.7501 38.1911 38.9835 39.1997 37.9161 39.5801L37.7501 39.6396V42C37.7501 46.5491 41.4509 50.25 46.0001 50.25C50.5492 50.25 54.2501 46.5491 54.2501 42V39.6396Z" fill="#8493A8" stroke="#0A2432" stroke-width="0.5"/>
<path d="M29.9999 0.25C36.4789 0.25 41.7499 5.52108 41.7499 12V12.25H50.9999C51.4104 12.25 51.7432 12.5794 51.749 12.9893L51.746 13.0195L51.7499 13.0576V25C51.7499 25.4139 51.4138 25.75 50.9999 25.75C50.5861 25.75 50.25 25.4138 50.2499 25V13.75H41.7499V18.3604L41.916 18.4189C42.9834 18.7993 43.7499 19.809 43.7499 21C43.7499 22.5159 42.5158 23.75 40.9999 23.75C39.4841 23.75 38.25 22.5158 38.2499 21C38.2499 19.809 39.0167 18.8001 40.0839 18.4199L40.2499 18.3604V12C40.2499 6.34802 35.6519 1.75 29.9999 1.75C24.348 1.75002 19.7499 6.34792 19.7499 12V12.25H36.9999C37.414 12.25 37.7499 12.5852 37.7499 13C37.7499 13.4139 37.4138 13.75 36.9999 13.75H19.7499V18.3604L19.916 18.4189C20.9834 18.7993 21.7499 19.809 21.7499 21C21.7499 22.5159 20.5158 23.75 18.9999 23.75C17.4841 23.7499 16.2501 22.5158 16.2499 21L16.2587 20.7793C16.3467 19.6854 17.0831 18.7765 18.0839 18.4199L18.2499 18.3604V12C18.2499 5.52109 23.521 0.250023 29.9999 0.25ZM18.9999 19.75C18.311 19.7501 17.7498 20.3109 17.7499 21C17.75 21.689 18.3109 22.2499 18.9999 22.25C19.689 22.25 20.2499 21.689 20.2499 21C20.2499 20.3109 19.689 19.75 18.9999 19.75ZM40.9999 19.75C40.3109 19.75 39.7499 20.3109 39.7499 21C39.75 21.689 40.3109 22.25 40.9999 22.25C41.689 22.25 42.2499 21.689 42.2499 21C42.2499 20.3109 41.689 19.75 40.9999 19.75Z" fill="#8493A8" stroke="#0A2432" stroke-width="0.5"/>
<path d="M9 12.25H14.959C15.373 12.25 15.709 12.5852 15.709 13C15.709 13.4139 15.3729 13.75 14.959 13.75H9.75V46.25H21C21.4141 46.25 21.75 46.5852 21.75 47C21.75 47.4138 21.4139 47.75 21 47.75H9.75V55C9.75009 56.792 11.208 58.25 13 58.25H22C22.414 58.25 22.75 58.5852 22.75 59C22.75 59.4138 22.4139 59.75 22 59.75H13C10.3811 59.75 8.25002 57.6178 8.25 55V13C8.25 12.5852 8.58595 12.25 9 12.25Z" fill="#8493A8" stroke="#0A2432" stroke-width="0.5"/>
<path d="M29.0001 28.25H66.959C67.1714 28.25 67.3624 28.3415 67.501 28.4893L67.5059 28.4951L67.5118 28.5C67.659 28.6389 67.75 28.8288 67.7501 29.041V55C67.7501 57.618 65.6189 59.7499 63.0001 59.75H29.0001C26.3811 59.75 24.2501 57.618 24.2501 55V29C24.2501 28.5862 24.5862 28.25 25.0001 28.25C25.4139 28.25 25.75 28.5862 25.7501 29V55C25.7501 56.792 27.208 58.25 29.0001 58.25H63.0001C64.792 58.2499 66.25 56.792 66.2501 55V29.75H29.0001C28.5862 29.75 28.2501 29.4139 28.2501 29C28.2501 28.5852 28.586 28.25 29.0001 28.25Z" fill="#8493A8" stroke="#0A2432" stroke-width="0.5"/>
</g>
<g clip-path="url(#clip1_12965_178565)">
<path d="M109.001 42.25C109.416 42.25 109.751 42.586 109.751 43V45C109.751 45.414 109.416 45.75 109.001 45.75C108.586 45.75 108.251 45.414 108.251 45V43C108.251 42.5859 108.586 42.25 109.001 42.25Z" fill="#8493A8" stroke="#0A2432" stroke-width="0.5"/>
<path d="M109.001 10.25C109.416 10.25 109.751 10.586 109.751 11V39C109.751 39.414 109.415 39.75 109.001 39.75C108.586 39.75 108.251 39.414 108.251 39V11C108.251 10.5859 108.586 10.25 109.001 10.25Z" fill="#8493A8" stroke="#0A2432" stroke-width="0.5"/>
<path d="M123.001 10.25C123.415 10.25 123.751 10.586 123.751 11V24C123.751 24.414 123.415 24.75 123.001 24.75C122.586 24.75 122.251 24.414 122.251 24V11C122.251 10.5858 122.586 10.2499 123.001 10.25Z" fill="#8493A8" stroke="#0A2432" stroke-width="0.5"/>
<path d="M115.001 10.25C115.415 10.25 115.751 10.586 115.751 11V27C115.751 27.414 115.415 27.75 115.001 27.75C114.586 27.75 114.251 27.414 114.251 27V11C114.251 10.5859 114.586 10.25 115.001 10.25Z" fill="#8493A8" stroke="#0A2432" stroke-width="0.5"/>
<path d="M96.0008 0.25H135.001C137.62 0.250105 139.751 2.38109 139.751 5V32C139.751 32.4139 139.415 32.7499 139.001 32.75C138.586 32.75 138.251 32.414 138.251 32V5C138.251 3.20802 136.793 1.7501 135.001 1.75H96.0008C95.5862 1.75 95.2508 1.41405 95.2508 1C95.2508 0.585948 95.586 0.25 96.0008 0.25Z" fill="#8493A8" stroke="#0A2432" stroke-width="0.5"/>
<path d="M133.001 10.25C133.415 10.25 133.751 10.586 133.751 11V26C133.751 26.414 133.415 26.75 133.001 26.75C132.586 26.75 132.251 26.414 132.251 26V11L132.255 10.9229C132.293 10.5449 132.612 10.25 133.001 10.25Z" fill="#8493A8" stroke="#0A2432" stroke-width="0.5"/>
<path d="M129.001 10.25C129.415 10.25 129.751 10.586 129.751 11V24C129.751 24.414 129.415 24.75 129.001 24.75C128.586 24.75 128.251 24.414 128.251 24V11C128.251 10.5858 128.586 10.2499 129.001 10.25Z" fill="#8493A8" stroke="#0A2432" stroke-width="0.5"/>
<path d="M99.0009 10.25C99.4157 10.25 99.7509 10.586 99.7509 11V39C99.7508 39.4139 99.4156 39.75 99.0009 39.75C98.5862 39.75 98.251 39.414 98.2509 39V11C98.2509 10.5859 98.5862 10.25 99.0009 10.25Z" fill="#8493A8" stroke="#0A2432" stroke-width="0.5"/>
<path d="M125.001 27.25C132.031 27.25 137.751 32.9701 137.751 40C137.751 41.2409 137.573 42.467 137.222 43.6436H137.221C137.103 44.0409 136.687 44.2679 136.289 44.1475H136.288C135.892 44.0289 135.666 43.6113 135.784 43.2148C136.094 42.1764 136.251 41.0948 136.251 40C136.251 33.7969 131.204 28.75 125.001 28.75C118.798 28.75 113.751 33.7969 113.751 40C113.751 46.203 118.798 51.25 125.001 51.25C127.272 51.25 129.515 50.5122 131.491 49.1221C131.79 48.9124 132.197 48.9468 132.454 49.2041L140.118 56.8848C140.605 57.3713 141.398 57.3715 141.885 56.8848C142.372 56.3972 142.372 55.6038 141.885 55.1162L134.166 47.3975C133.874 47.1054 133.873 46.6306 134.165 46.3369C134.458 46.0442 134.933 46.0447 135.225 46.3369L142.945 54.0557C144.017 55.1279 144.017 56.8729 142.945 57.9453C142.409 58.4813 141.706 58.749 141.001 58.749C140.385 58.749 139.769 58.5432 139.266 58.1328L139.057 57.9443L131.969 50.8428L131.829 50.7021L131.66 50.8066C129.598 52.0814 127.313 52.75 125.001 52.75C117.971 52.75 112.251 47.0299 112.251 40C112.251 32.9701 117.971 27.25 125.001 27.25Z" fill="#8493A8" stroke="#0A2432" stroke-width="0.5"/>
<path d="M89.0008 0.25C91.6198 0.25 93.7509 2.38103 93.7508 5V57.1895L98.4705 52.4697C98.7638 52.1764 99.2376 52.1763 99.5311 52.4697L105.001 57.9395L108.471 54.4697C108.764 54.1763 109.238 54.1763 109.531 54.4697L113.001 57.9395L117.471 53.4697C117.764 53.1764 118.238 53.1763 118.531 53.4697L123.001 57.9395L125.471 55.4697C125.764 55.1764 126.238 55.1763 126.531 55.4697L129.001 57.9395L131.471 55.4697C131.764 55.1763 132.238 55.1763 132.531 55.4697C132.824 55.763 132.824 56.2369 132.531 56.5303L129.531 59.5303C129.385 59.6765 129.193 59.7499 129.001 59.75C128.809 59.75 128.617 59.6765 128.471 59.5303L126.001 57.0605L123.531 59.5303C123.238 59.8236 122.764 59.8235 122.471 59.5303L118.001 55.0605L113.531 59.5303C113.238 59.8236 112.764 59.8235 112.471 59.5303L109.001 56.0605L105.531 59.5303C105.238 59.8236 104.764 59.8236 104.471 59.5303L99.0008 54.0605L93.532 59.5293C93.4627 59.5986 93.3803 59.6537 93.2869 59.6924C93.1499 59.749 92.9991 59.7627 92.8553 59.7344L92.7147 59.6924C92.5309 59.6158 92.3851 59.4687 92.3084 59.2852C92.2702 59.1936 92.2508 59.0965 92.2508 59V5C92.2508 3.20799 90.7928 1.75005 89.0008 1.75C87.2088 1.75 85.7508 3.20796 85.7508 5V38.25H89.0008C89.4155 38.2501 89.7508 38.586 89.7508 39C89.7507 39.4139 89.4155 39.7499 89.0008 39.75H85.0008C84.5861 39.75 84.2509 39.414 84.2508 39V5C84.2508 2.38103 86.3819 0.250011 89.0008 0.25Z" fill="#8493A8" stroke="#0A2432" stroke-width="0.5"/>
<path d="M125.001 31.25C125.797 31.25 126.567 31.3658 127.304 31.5674H127.306L127.309 31.5693L127.326 31.5742C131.024 32.5962 133.751 35.9829 133.751 40C133.751 44.8239 129.826 48.75 125.001 48.75C120.176 48.75 116.251 44.8239 116.251 40C116.251 36.7353 118.053 33.8856 120.712 32.3828L120.711 32.3818C120.722 32.3758 120.732 32.3707 120.738 32.3662C120.739 32.3654 120.74 32.364 120.741 32.3633C122.003 31.6568 123.454 31.25 125.001 31.25ZM126.251 32.8633L126.036 32.833C125.702 32.785 125.358 32.75 125.001 32.75C123.887 32.75 122.836 33.0101 121.893 33.459L121.751 33.5273V41C121.751 41.414 121.415 41.75 121.001 41.75C120.586 41.75 120.251 41.414 120.251 41V34.4961L119.822 34.9355C118.544 36.2439 117.751 38.0296 117.751 40C117.751 43.998 121.004 47.25 125.001 47.25C128.998 47.25 132.251 43.9979 132.251 40C132.251 37.1143 130.551 34.6265 128.108 33.46L127.751 33.2891V41C127.751 41.414 127.415 41.7499 127.001 41.75C126.586 41.75 126.251 41.4141 126.251 41V32.8633Z" fill="#8493A8" stroke="#0A2432" stroke-width="0.5"/>
<path d="M105.001 42.25C105.416 42.25 105.751 42.5861 105.751 43V45C105.751 45.414 105.415 45.75 105.001 45.75C104.586 45.75 104.251 45.414 104.251 45V43C104.251 42.5859 104.586 42.25 105.001 42.25Z" fill="#8493A8" stroke="#0A2432" stroke-width="0.5"/>
<path d="M99.0008 42.25C99.4156 42.25 99.7509 42.5861 99.7508 43V45C99.7508 45.414 99.4155 45.75 99.0008 45.75C98.586 45.75 98.2508 45.414 98.2508 45V43C98.2508 42.5859 98.586 42.25 99.0008 42.25Z" fill="#8493A8" stroke="#0A2432" stroke-width="0.5"/>
<path d="M105.001 10.25C105.416 10.25 105.751 10.586 105.751 11V39C105.751 39.4139 105.416 39.75 105.001 39.75C104.586 39.75 104.251 39.414 104.251 39V11C104.251 10.5859 104.586 10.25 105.001 10.25Z" fill="#8493A8" stroke="#0A2432" stroke-width="0.5"/>
</g>
<path d="M165 32.25H168.5C168.915 32.25 169.25 32.5859 169.25 33C169.25 33.414 168.915 33.75 168.5 33.75H165C164.585 33.75 164.25 33.414 164.25 33C164.25 32.586 164.585 32.25 165 32.25Z" fill="#8493A8" stroke="#0A2432" stroke-width="0.5"/>
<path d="M178 50.25C180.068 50.25 181.75 51.9321 181.75 54C181.75 56.0679 180.068 57.75 178 57.75C175.932 57.75 174.25 56.068 174.25 54C174.25 51.9321 175.932 50.25 178 50.25ZM178 51.75C176.759 51.75 175.75 52.759 175.75 54C175.75 55.2412 176.759 56.25 178 56.25C179.241 56.25 180.25 55.2412 180.25 54C180.25 52.7588 179.241 51.75 178 51.75Z" fill="#8493A8" stroke="#0A2432" stroke-width="0.5"/>
<path d="M161 26.25H167C167.415 26.25 167.75 26.5859 167.75 27C167.75 27.4142 167.415 27.7501 167 27.75H161C160.585 27.75 160.25 27.414 160.25 27C160.25 26.5859 160.585 26.25 161 26.25Z" fill="#8493A8" stroke="#0A2432" stroke-width="0.5"/>
<path d="M163 38.25H170C170.415 38.25 170.75 38.586 170.75 39C170.75 39.414 170.415 39.75 170 39.75H163C162.585 39.75 162.25 39.414 162.25 39C162.25 38.5859 162.585 38.25 163 38.25Z" fill="#8493A8" stroke="#0A2432" stroke-width="0.5"/>
<path d="M208 50.25C210.068 50.25 211.75 51.9321 211.75 54C211.75 56.0679 210.068 57.75 208 57.75C205.932 57.75 204.25 56.068 204.25 54C204.25 51.9321 205.932 50.25 208 50.25ZM208 51.75C206.759 51.75 205.75 52.759 205.75 54C205.75 55.2412 206.759 56.25 208 56.25C209.241 56.25 210.25 55.2412 210.25 54C210.25 52.7588 209.241 51.75 208 51.75Z" fill="#8493A8" stroke="#0A2432" stroke-width="0.5"/>
<path d="M207.075 18.2539C207.487 18.2951 207.787 18.6626 207.746 19.0752L207.257 23.9756L207.229 24.25H213C213.415 24.25 213.75 24.5861 213.75 25C213.75 25.4141 213.415 25.75 213 25.75H207.079L207.057 25.9756L206.456 31.9756L206.429 32.25H211.5C211.915 32.25 212.25 32.5861 212.25 33C212.25 33.4141 211.915 33.75 211.5 33.75H206.279L206.257 33.9756L205.746 39.0752C205.707 39.4615 205.382 39.75 205.001 39.75C204.974 39.75 204.951 39.7496 204.929 39.7471L204.925 39.7461C204.514 39.7047 204.213 39.3374 204.254 38.9248L204.744 34.0254L204.772 33.75H195.75V39C195.75 39.4141 195.415 39.75 195 39.75C194.585 39.7499 194.25 39.414 194.25 39V33.75H185.229L185.256 34.0254L185.746 38.9248C185.788 39.3375 185.487 39.7049 185.075 39.7461L185.071 39.7471C185.05 39.7496 185.028 39.75 184.999 39.75C184.666 39.75 184.375 39.5291 184.281 39.2148L184.254 39.0752L183.744 33.9756L183.722 33.75H177C176.585 33.75 176.25 33.4141 176.25 33C176.25 32.5861 176.585 32.25 177 32.25H183.571L183.544 31.9756L182.943 25.9756L182.921 25.75H175.75C175.335 25.75 175 25.4141 175 25C175 24.5859 175.336 24.2499 175.75 24.25H182.772L182.744 23.9756L182.254 19.0752C182.213 18.6627 182.514 18.2952 182.925 18.2539C183.349 18.2118 183.705 18.5115 183.746 18.9248L184.256 24.0254L184.279 24.25H194.25V19C194.25 18.5861 194.586 18.2501 195 18.25C195.415 18.25 195.75 18.5861 195.75 19V24.25H205.722L205.744 24.0254L206.254 18.9258C206.294 18.5376 206.613 18.2493 206.997 18.25L207.075 18.2539ZM184.456 26.0254L185.057 32.0254L185.079 32.25H194.25V25.75H184.429L184.456 26.0254ZM195.75 32.25H204.921L204.944 32.0254L205.544 26.0254L205.571 25.75H195.75V32.25Z" fill="#8493A8" stroke="#0A2432" stroke-width="0.5"/>
<path d="M163 2.25H166C167.207 2.25003 168.098 3.00271 168.718 3.84863C169.336 4.69189 169.652 5.58454 169.711 5.7627L169.712 5.76758C169.724 5.80298 169.733 5.8359 169.737 5.86621L169.738 5.87305L175.708 40.6904L175.717 40.7441L175.748 40.7891C176.003 41.1604 176.926 42.25 179 42.25H210.003C210.065 42.2493 210.679 42.2315 211.38 41.915C212.088 41.5953 212.887 40.9695 213.289 39.7637V39.7627C213.663 38.6404 214.495 34.6625 215.408 30.0098C216.324 25.3451 217.328 19.974 218.047 16.0449L218.102 15.75H174C173.585 15.75 173.25 15.4141 173.25 15C173.25 14.586 173.585 14.25 174 14.25H219C219.195 14.25 219.382 14.3257 219.521 14.459L219.576 14.5195C219.719 14.6905 219.778 14.9149 219.737 15.1338V15.1348C219.656 15.5848 218.651 21.11 217.539 26.9014C216.983 29.7972 216.401 32.7591 215.895 35.1855C215.45 37.315 215.067 39.0183 214.812 39.9072L214.711 40.2373C213.787 43.014 211.222 43.75 210 43.75H179C175.589 43.75 174.381 41.441 174.329 41.3379H174.33C174.297 41.2699 174.274 41.2 174.262 41.1289V41.127L168.274 6.20898L168.271 6.18652L168.263 6.16602L168.145 5.87012C168 5.53835 167.78 5.11453 167.502 4.73535C167.144 4.24648 166.63 3.75004 166 3.75H162.993C162.744 3.75663 162.433 3.81068 162.18 4.00391C161.913 4.20721 161.75 4.53414 161.75 5C161.75 5.466 161.913 5.79368 162.182 5.99707C162.437 6.19026 162.751 6.24341 163.006 6.25H165C165.415 6.25 165.75 6.58597 165.75 7C165.75 7.41406 165.415 7.75 165 7.75H163C162.445 7.75 161.752 7.5649 161.203 7.12988C160.663 6.70186 160.25 6.02325 160.25 5C160.25 3.97676 160.663 3.29814 161.203 2.87012C161.752 2.43511 162.445 2.25 163 2.25Z" fill="#8493A8" stroke="#0A2432" stroke-width="0.5"/>
<path d="M183 46.25H211C211.415 46.2501 211.75 46.586 211.75 47C211.75 47.414 211.415 47.7499 211 47.75H182.957L182.917 47.7646C182.854 47.7869 182.796 47.8246 182.753 47.8584C182.706 47.8948 182.658 47.9397 182.609 47.9883C182.512 48.0857 182.405 48.2117 182.296 48.3525C182.078 48.6339 181.845 48.9913 181.671 49.3359C181.539 49.597 181.274 49.7499 180.999 49.75C180.888 49.75 180.772 49.7241 180.664 49.6699C180.317 49.496 180.163 49.0895 180.298 48.7354L180.328 48.665C180.474 48.3738 180.811 47.7576 181.289 47.2178C181.773 46.6706 182.359 46.25 183 46.25Z" fill="#8493A8" stroke="#0A2432" stroke-width="0.5"/>
<g clip-path="url(#clip2_12965_178565)">
<path d="M274.959 0.25H290.964C293.583 0.250127 295.715 2.38222 295.715 5.00195V21.0059C295.715 24.0306 294.76 26.2744 292.494 28.5391L262.787 58.2871C261.887 59.1854 260.695 59.6787 259.427 59.6787C258.157 59.6786 256.965 59.1854 256.067 58.2881L237.678 39.8975C236.779 39.0001 236.285 37.8072 236.285 36.5371C236.285 35.2681 236.778 34.0752 237.677 33.1768L263.66 7.23047L263.98 6.91016L263.539 6.80957C260.134 6.03527 257.369 5.62148 255.298 5.44629C254.262 5.35871 253.397 5.33043 252.711 5.34766C252.029 5.36476 251.507 5.4266 251.167 5.52637L250.767 5.64355L251.059 5.94141C251.585 6.47839 253.082 7.52135 256.5 8.9248L257.21 9.20996C257.594 9.3612 257.783 9.79672 257.632 10.1816C257.48 10.5677 257.046 10.757 256.658 10.6055C252.61 9.0091 250.745 7.78316 249.912 6.89941C249.5 6.46227 249.352 6.11968 249.306 5.86816C249.259 5.61701 249.308 5.42741 249.351 5.26562C249.503 4.69726 249.984 4.27572 250.988 4.04102C251.997 3.80529 253.475 3.77565 255.501 3.95312C258.787 4.23949 263.039 5.05037 267.473 6.23828C268.922 6.62676 273.245 7.83451 277.079 9.40234C278.998 10.1872 280.78 11.056 282.016 11.9492C282.634 12.3962 283.101 12.8396 283.384 13.2686C283.664 13.6937 283.751 14.0863 283.652 14.457C283.503 15.0124 283.038 15.3466 282.48 15.5508C282.064 15.7033 281.626 15.7715 281.304 15.8076L281.03 15.834C280.999 15.8361 280.977 15.8379 280.958 15.8379C280.574 15.8379 280.246 15.5428 280.212 15.1523C280.177 14.7661 280.443 14.4216 280.816 14.3496L280.892 14.3389C281.332 14.3009 281.631 14.2407 281.832 14.1836L282.232 14.0703L281.944 13.7695C281.481 13.2875 280.36 12.5725 278.628 11.7432L278.422 11.6445L278.305 11.8408C277.919 12.4909 277.71 13.2382 277.71 14.0039C277.71 16.3486 279.616 18.2549 281.961 18.2549C284.305 18.2549 286.212 16.3487 286.212 14.0039C286.212 11.6593 284.306 9.75294 281.961 9.75293C281.546 9.75293 281.211 9.41699 281.211 9.00293C281.211 8.58871 281.546 8.25195 281.961 8.25195C285.133 8.25196 287.713 10.8321 287.713 14.0039C287.713 17.1758 285.133 19.7559 281.961 19.7559C278.789 19.7559 276.209 17.1759 276.209 14.0039C276.209 13.0448 276.461 12.1083 276.914 11.2715L277.045 11.0283L276.791 10.9219C274.385 9.91071 271.164 8.78032 267.084 7.6875C266.654 7.57208 266.238 7.46714 265.827 7.3623L265.689 7.32715L265.589 7.42773L238.738 34.2393C238.124 34.8524 237.786 35.6696 237.786 36.5371C237.786 37.4056 238.124 38.222 238.738 38.8359L257.129 57.2266C258.358 58.4567 260.493 58.4581 261.725 57.2275V57.2266L291.432 27.4775C292.422 26.4881 293.122 25.5347 293.571 24.4902C294.021 23.4447 294.215 22.3224 294.215 21.0059V5.00098C294.214 3.20871 292.756 1.7511 290.964 1.75098H274.959C273.643 1.75098 272.521 1.94477 271.475 2.39453C270.431 2.84387 269.477 3.54186 268.487 4.53125C268.194 4.82473 267.72 4.82478 267.427 4.53125C267.133 4.23784 267.133 3.76427 267.427 3.4707C269.691 1.20617 271.934 0.25 274.959 0.25Z" fill="#8493A8" stroke="#0A2432" stroke-width="0.5"/>
<path d="M286.784 37.0693C286.994 36.7113 287.453 36.5899 287.811 36.8008V36.8018C288.168 37.0109 288.287 37.47 288.078 37.8271L276.616 57.3789L276.615 57.3809C275.739 58.8986 274.14 59.75 272.496 59.75C271.693 59.75 270.882 59.5467 270.139 59.1191L267.861 57.6465C267.536 57.4354 267.428 57.0126 267.601 56.6748L267.641 56.6084C267.864 56.2616 268.33 56.1613 268.677 56.3867L268.678 56.3877L270.912 57.835L270.923 57.8418C272.434 58.7144 274.423 58.1749 275.319 56.625L275.318 56.624L286.784 37.0693Z" fill="#8493A8" stroke="#0A2432" stroke-width="0.5"/>
<path d="M260.954 28.2578C261.369 28.2578 261.705 28.5937 261.705 29.0078V43.0127C261.705 43.4267 261.369 43.7627 260.954 43.7627C260.539 43.7626 260.204 43.4267 260.204 43.0127V29.0078C260.204 28.5937 260.539 28.258 260.954 28.2578Z" fill="#8493A8" stroke="#0A2432" stroke-width="0.5"/>
<path d="M267.957 30.2598C268.922 30.2599 269.707 31.0456 269.707 32.0107C269.707 32.9758 268.922 33.7606 267.957 33.7607C266.992 33.7607 266.206 32.9758 266.206 32.0107C266.206 31.0454 266.992 30.2598 267.957 30.2598Z" fill="#8493A8" stroke="#0A2432" stroke-width="0.5"/>
<path d="M253.953 36.2617C254.918 36.2619 255.703 37.0475 255.703 38.0127C255.703 38.9778 254.918 39.7625 253.953 39.7627C252.988 39.7627 252.202 38.9778 252.202 38.0127C252.202 37.0473 252.988 36.2617 253.953 36.2617Z" fill="#8493A8" stroke="#0A2432" stroke-width="0.5"/>
</g>
<g clip-path="url(#clip3_12965_178565)">
<path d="M317 8.25H329C329.414 8.25 329.75 8.58612 329.75 9V15C329.75 15.4139 329.414 15.75 329 15.75H315C314.586 15.75 314.25 15.4139 314.25 15V11C314.25 9.48409 315.484 8.25 317 8.25ZM317 9.75C316.311 9.75 315.75 10.3109 315.75 11V14.25H328.25V9.75H317Z" fill="#8493A8" stroke="#0A2432" stroke-width="0.5"/>
<path d="M333 8.25H345C346.516 8.25002 347.75 9.4841 347.75 11V15C347.75 15.4139 347.414 15.75 347 15.75H333C332.586 15.75 332.25 15.4139 332.25 15V9C332.25 8.58612 332.586 8.25 333 8.25ZM333.75 14.25H346.25V11C346.25 10.3109 345.689 9.75002 345 9.75H333.75V14.25Z" fill="#8493A8" stroke="#0A2432" stroke-width="0.5"/>
<path d="M329 18.25C329.414 18.2501 329.75 18.5862 329.75 19V35C329.75 35.4138 329.414 35.7499 329 35.75H317C315.484 35.75 314.25 34.5159 314.25 33V19C314.25 18.5861 314.586 18.25 315 18.25C315.414 18.25 315.75 18.5861 315.75 19V33C315.75 33.6891 316.311 34.25 317 34.25H328.25V19C328.25 18.5861 328.586 18.25 329 18.25Z" fill="#8493A8" stroke="#0A2432" stroke-width="0.5"/>
<path d="M335 0.25C337.619 0.25 339.75 2.38102 339.75 5C339.75 5.41386 339.414 5.74996 339 5.75C338.586 5.75 338.25 5.41388 338.25 5C338.25 3.20798 336.792 1.75002 335 1.75C333.208 1.75 331.75 3.20796 331.75 5C331.75 5.41388 331.414 5.75 331 5.75C330.586 5.75 330.25 5.41388 330.25 5C330.25 3.20796 328.792 1.75 327 1.75C325.208 1.75002 323.75 3.20798 323.75 5C323.75 5.41388 323.414 5.75 323 5.75C322.586 5.74996 322.25 5.41384 322.25 5C322.25 2.38104 324.381 0.250021 327 0.25C328.552 0.25 329.932 0.998249 330.8 2.15332L331 2.41895L331.2 2.15332C332.068 0.998212 333.448 0.250025 335 0.25Z" fill="#8493A8" stroke="#0A2432" stroke-width="0.5"/>
<path d="M347 18.25C347.414 18.25 347.75 18.5861 347.75 19V33C347.75 34.5158 346.516 35.75 345 35.75H333C332.586 35.75 332.25 35.4138 332.25 35V19C332.25 18.5861 332.586 18.25 333 18.25C333.414 18.25 333.75 18.5861 333.75 19V34.25H345C345.689 34.25 346.25 33.6891 346.25 33V19C346.25 18.5861 346.586 18.25 347 18.25Z" fill="#8493A8" stroke="#0A2432" stroke-width="0.5"/>
<path d="M349 58.25H351C351.414 58.25 351.75 58.5861 351.75 59C351.75 59.4139 351.414 59.75 351 59.75H349C348.586 59.75 348.25 59.4139 348.25 59C348.25 58.5861 348.586 58.25 349 58.25Z" fill="#8493A8" stroke="#0A2432" stroke-width="0.5"/>
<path d="M361 46.25C362.516 46.25 363.75 47.4841 363.75 49C363.75 50.5159 362.516 51.75 361 51.75C359.484 51.75 358.25 50.5159 358.25 49C358.25 47.4841 359.484 46.25 361 46.25ZM361 47.75C360.311 47.75 359.75 48.311 359.75 49C359.75 49.6891 360.311 50.25 361 50.25C361.689 50.25 362.25 49.6891 362.25 49C362.25 48.311 361.689 47.75 361 47.75Z" fill="#8493A8" stroke="#0A2432" stroke-width="0.5"/>
<path d="M327 43.75C324.105 43.75 321.75 46.105 321.75 49C321.75 51.8951 324.105 54.25 327 54.25C329.895 54.25 332.25 51.8951 332.25 49C332.25 46.1049 329.895 43.75 327 43.75ZM361 43.75C358.105 43.75 355.75 46.105 355.75 49C355.75 51.8951 358.105 54.25 361 54.25C363.895 54.25 366.25 51.8951 366.25 49C366.25 46.1049 363.895 43.75 361 43.75ZM370.25 36.999C370.249 36.7751 370.212 36.325 370.103 35.8555C369.995 35.3949 369.806 34.8667 369.47 34.5303L366.689 31.75H355C354.586 31.75 354.25 31.4139 354.25 31C354.25 30.5861 354.586 30.25 355 30.25H360.536L360.605 30.1123L362.328 26.665C362.515 26.2938 362.964 26.1433 363.335 26.3281C363.706 26.5147 363.856 26.9651 363.671 27.335L362.395 29.8887L362.213 30.25H366.185L366.162 29.9795L365.252 19.0625C365.238 17.2297 363.762 15.7501 362 15.75H351.75V49C351.75 49.4139 351.414 49.75 351 49.75H333.703L333.673 49.9648C333.203 53.2309 330.393 55.75 327 55.75C323.278 55.75 320.25 52.7218 320.25 49C320.25 45.2781 323.278 42.25 327 42.25C330.393 42.25 333.203 44.7691 333.673 48.0352L333.703 48.25H350.25V15C350.25 14.5861 350.586 14.25 351 14.25H362C364.619 14.2501 366.75 16.3812 366.75 19V19.0107L366.751 19.0205L367.717 30.5732L367.725 30.6641L370.53 33.4697C371.111 34.0496 371.42 34.8617 371.581 35.5801C371.742 36.2941 371.75 36.8866 371.75 37V49C371.75 49.4139 371.414 49.75 371 49.75H367.703L367.673 49.9648C367.203 53.2309 364.393 55.75 361 55.75C357.278 55.75 354.25 52.7219 354.25 49C354.25 45.2782 357.278 42.25 361 42.25C364.393 42.25 367.203 44.7699 367.673 48.0361L367.703 48.25H370.25V39.75H369C368.586 39.75 368.25 39.4139 368.25 39C368.25 38.5861 368.586 38.25 369 38.25H370.25V36.999Z" fill="#8493A8" stroke="#0A2432" stroke-width="0.5"/>
<path d="M327 46.25C328.516 46.25 329.75 47.4841 329.75 49C329.75 50.5159 328.516 51.75 327 51.75C325.484 51.75 324.25 50.5159 324.25 49C324.25 47.4841 325.484 46.25 327 46.25ZM327 47.75C326.311 47.75 325.75 48.311 325.75 49C325.75 49.6891 326.311 50.25 327 50.25C327.689 50.25 328.25 49.6891 328.25 49C328.25 48.311 327.689 47.75 327 47.75Z" fill="#8493A8" stroke="#0A2432" stroke-width="0.5"/>
<path d="M355 58.25H371C371.414 58.25 371.75 58.5861 371.75 59C371.75 59.4138 371.414 59.75 371 59.75H355C354.586 59.75 354.25 59.4139 354.25 59C354.25 58.5861 354.586 58.25 355 58.25Z" fill="#8493A8" stroke="#0A2432" stroke-width="0.5"/>
<path d="M313 58.25H327C327.414 58.25 327.75 58.5861 327.75 59C327.75 59.4139 327.414 59.75 327 59.75H313C312.586 59.75 312.25 59.4139 312.25 59C312.25 58.5861 312.586 58.25 313 58.25Z" fill="#8493A8" stroke="#0A2432" stroke-width="0.5"/>
<path d="M333 58.25H343C343.414 58.25 343.75 58.5861 343.75 59C343.75 59.4139 343.414 59.75 343 59.75H333C332.586 59.75 332.25 59.4139 332.25 59C332.25 58.5861 332.586 58.25 333 58.25Z" fill="#8493A8" stroke="#0A2432" stroke-width="0.5"/>
<path d="M313 38.25H347C347.414 38.25 347.75 38.5861 347.75 39C347.75 39.4139 347.414 39.75 347 39.75H313.75V45C313.75 46.82 315.18 48.25 317 48.25C317.414 48.25 317.75 48.5861 317.75 49C317.75 49.4138 317.414 49.75 317 49.75C314.334 49.75 312.25 47.6658 312.25 45V39L312.254 38.9229C312.293 38.5451 312.612 38.2499 313 38.25Z" fill="#8493A8" stroke="#0A2432" stroke-width="0.5"/>
</g>
<defs>
<clipPath id="clip0_12965_178565">
<rect width="60" height="60" fill="white" transform="translate(8)"/>
</clipPath>
<clipPath id="clip1_12965_178565">
<rect width="60" height="60" fill="white" transform="translate(84)"/>
</clipPath>
<clipPath id="clip2_12965_178565">
<rect width="60" height="60" fill="white" transform="translate(236)"/>
</clipPath>
<clipPath id="clip3_12965_178565">
<rect width="60" height="60" fill="white" transform="translate(312)"/>
</clipPath>
</defs>
</svg>
