<svg width="672" height="524" viewBox="0 0 672 524" fill="none" xmlns="http://www.w3.org/2000/svg">
<g clip-path="url(#clip0_15011_1326)">
<path d="M636.864 312.654L602.729 301.667L606.554 289.722C613.802 267.086 601.327 242.761 578.753 235.494C556.18 228.235 531.918 240.735 524.674 263.367L520.85 275.311L478.305 261.618C476.072 260.901 473.631 262.043 472.741 264.218L399.336 443.863C398.861 445.034 398.889 446.361 399.424 447.499C399.954 448.637 400.946 449.512 402.141 449.9L589.526 510.212C589.978 510.356 590.444 510.43 590.905 510.43C591.68 510.43 592.446 510.231 593.124 509.842C594.218 509.227 595.011 508.172 595.306 506.942L639.881 318.016C640.417 315.726 639.093 313.371 636.864 312.654ZM409.56 442.767L479.527 271.536L518.086 283.949L511.886 303.323L504.481 300.936C503.333 300.566 502.105 300.672 501.031 301.223C499.956 301.778 499.162 302.717 498.793 303.869C498.424 305.026 498.525 306.252 499.079 307.33C499.633 308.407 500.569 309.203 501.718 309.573L526.04 317.401C526.497 317.549 526.963 317.618 527.429 317.618C528.139 317.618 528.84 317.447 529.491 317.114C530.566 316.559 531.359 315.62 531.728 314.468C532.49 312.09 531.179 309.532 528.808 308.768L520.499 306.094L526.7 286.72L591.362 307.533L585.161 326.903L577.452 324.423C575.081 323.651 572.53 324.974 571.769 327.356C571.007 329.734 572.318 332.293 574.689 333.056L599.006 340.879C599.463 341.027 599.934 341.101 600.4 341.101C601.105 341.101 601.807 340.934 602.453 340.601C603.528 340.046 604.326 339.107 604.695 337.95C605.064 336.794 604.962 335.568 604.413 334.49C603.86 333.412 602.923 332.616 601.774 332.246L593.765 329.67L599.966 310.295L630.119 320.001L587.63 500.076L409.56 442.767ZM575.99 244.126C584.612 246.902 591.648 252.888 595.8 260.989C599.947 269.089 600.713 278.309 597.945 286.951L594.121 298.896L529.459 278.083L533.283 266.138C539.004 248.262 558.154 238.385 575.99 244.126Z" fill="#F4F9FD"/>
<path d="M35.1357 365.654L69.2706 354.667L65.4461 342.722C58.1984 320.086 70.6731 295.761 93.2467 288.494C115.82 281.235 140.082 293.735 147.326 316.367L151.15 328.311L193.695 314.618C195.928 313.901 198.369 315.043 199.259 317.218L272.664 496.863C273.139 498.034 273.111 499.361 272.576 500.499C272.046 501.637 271.054 502.512 269.859 502.9L82.4742 563.212C82.0221 563.356 81.5563 563.43 81.0949 563.43C80.3199 563.43 79.5539 563.231 78.8758 562.842C77.7824 562.227 76.9889 561.172 76.6936 559.942L32.1186 371.016C31.5834 368.726 32.9074 366.371 35.1357 365.654ZM262.44 495.767L192.473 324.536L153.914 336.949L160.114 356.323L167.519 353.936C168.667 353.566 169.895 353.672 170.969 354.223C172.044 354.778 172.838 355.717 173.207 356.869C173.576 358.026 173.475 359.252 172.921 360.33C172.367 361.407 171.431 362.203 170.282 362.573L145.96 370.401C145.503 370.549 145.037 370.618 144.571 370.618C143.861 370.618 143.16 370.447 142.509 370.114C141.434 369.559 140.641 368.62 140.272 367.468C139.51 365.09 140.821 362.532 143.192 361.768L151.501 359.094L145.3 339.72L80.6382 360.533L86.8386 379.903L94.5477 377.423C96.919 376.651 99.4702 377.974 100.231 380.356C100.993 382.734 99.6824 385.293 97.3111 386.056L72.9936 393.879C72.5369 394.027 72.0663 394.101 71.6004 394.101C70.8945 394.101 70.1932 393.934 69.5473 393.601C68.4724 393.046 67.6743 392.107 67.3053 390.95C66.9362 389.794 67.0377 388.568 67.5867 387.49C68.1403 386.412 69.0768 385.616 70.2255 385.246L78.2346 382.67L72.034 363.295L41.8806 373.001L84.3704 553.076L262.44 495.767ZM96.0102 297.126C87.3877 299.902 80.3521 305.888 76.2 313.989C72.0525 322.089 71.2867 331.309 74.0548 339.951L77.8792 351.896L142.541 331.083L138.717 319.138C132.996 301.262 113.846 291.385 96.0102 297.126Z" fill="#F4F9FD"/>
</g>
<defs>
<clipPath id="clip0_15011_1326">
<path d="M0 24C0 10.7452 10.7452 0 24 0H648C661.255 0 672 10.7452 672 24V500C672 513.255 661.255 524 648 524H24C10.7452 524 0 513.255 0 500V24Z" fill="white"/>
</clipPath>
</defs>
</svg>
