<svg width="148" height="72" viewBox="0 0 148 72" fill="none" xmlns="http://www.w3.org/2000/svg">
<path d="M54.7784 54.415C54.4056 54.6091 53.4506 54.8356 52.2471 54.8356C48.4729 54.8356 46.8115 52.5062 46.8115 49.8403C46.8115 46.3138 49.4214 44.5215 52.4237 44.5215C53.5749 44.5215 54.5168 44.7415 54.942 44.9615L54.4121 47.0644C53.9804 46.8897 53.3525 46.7085 52.5414 46.7085C50.9978 46.7085 49.6503 47.6144 49.6503 49.6527C49.6503 51.4774 50.7427 52.5968 52.6003 52.5968C53.2478 52.5968 53.9739 52.4803 54.3991 52.3185L54.7719 54.4085L54.7784 54.415Z" fill="#0061AF"/>
<path d="M55.6543 44.418H58.3623V48.4233H58.395C58.6304 48.1256 58.9379 47.8991 59.2649 47.7374C59.592 47.5756 59.9975 47.485 60.3834 47.485C62.0448 47.485 62.9737 48.6562 62.9737 50.7203V54.9456H60.2657V51.0244C60.2657 50.1639 59.9844 49.6462 59.3107 49.6462C58.8005 49.6462 58.5585 49.9439 58.4277 50.2286C58.3819 50.345 58.3688 50.5391 58.3688 50.6556V54.9521H55.6608V44.4244H55.6543V44.418Z" fill="#0061AF"/>
<path d="M66.8859 45.6667C66.8859 46.3655 66.343 46.922 65.4992 46.922C64.6554 46.922 64.1387 46.359 64.1387 45.6667C64.1387 44.9226 64.6816 44.3984 65.5123 44.3984C66.343 44.3984 66.8663 44.929 66.8859 45.6667ZM64.1452 54.952V47.6661H66.8532V54.952H64.1452Z" fill="#0061AF"/>
<path d="M68.0764 50.2623C68.0764 49.2853 68.0437 48.457 68.0176 47.7711H70.3592L70.477 48.7029H70.5228C70.791 48.3211 71.5105 47.6094 72.7336 47.6094C74.4539 47.6094 75.4023 48.7611 75.4023 50.767V55.0635H72.6944V51.0906C72.6944 50.2429 72.4131 49.7511 71.7525 49.7511C71.2227 49.7511 70.9872 50.107 70.8694 50.3917C70.8106 50.5211 70.7975 50.7282 70.7975 50.9288V55.0635H68.0895V50.2688H68.0764V50.2623Z" fill="#0061AF"/>
<path d="M83.4668 53.2053C83.4668 53.93 83.5126 54.6159 83.5846 54.9848H81.1579L81.027 54.3442H80.9682C80.458 54.9265 79.7254 55.1465 78.9339 55.1465C77.423 55.1465 76.4941 54.0659 76.4941 52.8495C76.4941 50.8953 78.2798 50.0218 80.7719 50.0218V49.9636C80.7719 49.6659 80.5495 49.3424 79.5619 49.3424C78.7835 49.3424 77.9724 49.6077 77.4818 49.8795L77.024 48.2036C77.4818 47.9512 78.548 47.5371 80.0786 47.5371C82.61 47.5371 83.4734 48.9348 83.4734 50.753V53.2053H83.4668ZM80.8635 51.6395C79.7581 51.6395 79.1432 51.9371 79.1432 52.5842C79.1432 53.0371 79.4376 53.283 79.9085 53.283C80.2944 53.283 80.7 53.0177 80.8374 52.5971C80.8701 52.4936 80.8701 52.3642 80.8701 52.2283V51.6395H80.8635Z" fill="#0061AF"/>
<path d="M92.9912 48.9993C91.8073 48.6111 91.3102 48.3717 91.3102 47.854C91.3102 47.4852 91.526 47.0387 92.5595 47.0387C93.3837 47.0387 94.2274 47.3364 94.5937 47.4787L95.0581 45.5375C94.7311 45.4146 93.7107 45.0781 92.4025 45.0781C89.9627 45.0781 88.3209 46.3399 88.3209 48.2099C88.3013 49.4522 89.2563 50.4164 91.0812 50.9987C92.1867 51.3287 92.5595 51.5293 92.5595 52.0793C92.5595 52.8752 91.611 52.8752 91.2055 52.8752C90.3748 52.8752 89.289 52.5646 88.6153 52.254L88.1182 54.2922C88.9358 54.6611 90.1001 54.8811 91.2448 54.8811C93.9396 54.8811 95.5553 53.7358 95.5553 51.8205C95.5291 50.4293 94.7376 49.5558 92.9912 48.9928V48.9993Z" fill="#0061AF"/>
<path d="M96.2021 44.4629H98.9101V48.4682H98.9428C99.1783 48.1705 99.4857 47.9441 99.8128 47.7823C100.14 47.6205 100.545 47.5299 100.931 47.5299C102.593 47.5299 103.522 48.7011 103.522 50.7652V54.9905H100.814V51.0694C100.814 50.2088 100.532 49.6911 99.8586 49.6911C99.3484 49.6911 99.1063 49.9888 98.9755 50.2735C98.9297 50.3899 98.9167 50.5841 98.9167 50.7005V54.997H96.2021V44.4694V44.4629Z" fill="#0061AF"/>
<path d="M112.006 51.2583C112.006 53.9113 110.089 55.1407 108.022 55.1407C105.824 55.1407 104.117 53.7624 104.117 51.3942C104.117 49.026 105.661 47.5313 108.173 47.5313C110.482 47.5248 112.006 49.0713 112.006 51.2583ZM106.897 51.3295C106.897 52.423 107.257 53.2577 108.094 53.2577C108.827 53.2577 109.213 52.5007 109.213 51.3295C109.213 50.3201 108.886 49.4013 108.094 49.4013C107.198 49.4077 106.897 50.3719 106.897 51.3295Z" fill="#0061AF"/>
<path d="M112.764 50.2623C112.764 49.2853 112.731 48.457 112.705 47.7711H115.021L115.138 48.7029H115.171C115.727 47.9782 116.545 47.6094 117.565 47.6094C119.089 47.6094 120.587 48.9617 120.587 51.33C120.587 53.9958 118.834 55.2253 117.238 55.2253C116.401 55.2253 115.753 54.9017 115.485 54.5264H115.452V57.9947H112.757V50.2558L112.764 50.2623ZM115.465 51.8735C115.465 52.0353 115.478 52.1841 115.511 52.3135C115.616 52.7923 116.021 53.187 116.558 53.187C117.369 53.187 117.859 52.5011 117.859 51.4529C117.859 50.4047 117.441 49.6864 116.59 49.6864C116.048 49.6864 115.59 50.107 115.498 50.6182C115.465 50.7217 115.465 50.8382 115.465 50.9547V51.867V51.8735Z" fill="#0061AF"/>
<path d="M39.95 14.3164L35.4563 32.4729L30.9561 14.3164H21.7857L20 41.3311H25.8738L27.2736 20.1464L32.5064 40.8976H38.3998L43.6326 20.1464L45.0323 41.3311H50.9061L49.1139 14.3164H39.95Z" fill="#0061AF"/>
<path d="M57.4406 32.4935C57.8527 37.5858 65.8654 36.7058 69.3387 35.6188L70.2021 40.0253C62.0912 43.0988 51.2725 41.0929 51.2725 30.6558C51.2725 16.7376 71.3664 15.23 71.3664 29.9311C71.3664 31.0376 71.2421 32.0211 71.157 32.4935H57.4471H57.4406ZM65.2636 28.0417C65.2636 22.2894 57.4275 22.2117 57.4799 28.0417H65.2636Z" fill="#E60033"/>
<path d="M78.6065 28.0423C78.5542 22.2123 86.3903 22.29 86.3903 28.0423H78.6065ZM72.3991 30.65C72.3991 41.087 83.2245 43.0865 91.3287 40.0194L90.4653 35.6129C86.9921 36.7 78.9859 37.58 78.5673 32.4876H92.2772C92.3622 32.0218 92.4865 31.0318 92.4865 29.9253C92.4865 15.2241 72.3926 16.7318 72.3926 30.65H72.3991Z" fill="#0061AF"/>
<path d="M120.424 20.1465H116.872V24.553H120.398L121.634 22.3335L120.424 20.1465Z" fill="#0061AF"/>
<path d="M115.838 32.3182V14.3105H109.84V20.147H107.211L106.753 24.56H109.847V33.3082C109.847 37.9023 111.018 41.3317 116.152 41.3317C118.01 41.3317 119.547 40.8658 120.404 40.5229V35.6053C117.336 36.1682 115.838 36.3688 115.838 32.3182Z" fill="#0061AF"/>
<path d="M99.2309 25.7516C99.2309 23.1051 104.209 23.9592 105.72 24.561L106.19 20.1545C101.147 18.608 93.3244 19.7598 93.3244 26.3339C93.2197 32.811 102.868 31.931 102.868 35.0174C102.868 38.2721 95.3128 36.6092 93.6645 35.6192L92.8076 40.0257C98.4198 42.478 109.082 41.9345 108.8 34.5645C108.696 27.421 99.2309 28.6827 99.2309 25.758V25.7516Z" fill="#0061AF"/>
<path d="M123.471 14L127.926 22.1271L123.471 30.2865H119.023L123.478 22.1271L119.023 14H123.471Z" fill="#E60033"/>
</svg>
