<svg width="108" height="44" viewBox="0 0 108 44" fill="none" xmlns="http://www.w3.org/2000/svg">
<g clip-path="url(#clip0_12965_178541)">
<path d="M34.7784 40.415C34.4056 40.6091 33.4506 40.8356 32.2471 40.8356C28.4729 40.8356 26.8115 38.5062 26.8115 35.8403C26.8115 32.3138 29.4214 30.5215 32.4237 30.5215C33.5749 30.5215 34.5168 30.7415 34.942 30.9615L34.4121 33.0644C33.9804 32.8897 33.3525 32.7085 32.5414 32.7085C30.9978 32.7085 29.6503 33.6144 29.6503 35.6527C29.6503 37.4774 30.7427 38.5968 32.6003 38.5968C33.2478 38.5968 33.9739 38.4803 34.3991 38.3185L34.7719 40.4085L34.7784 40.415Z" fill="white"/>
<path d="M35.6543 30.418H38.3623V34.4233H38.395C38.6304 34.1256 38.9379 33.8991 39.2649 33.7374C39.592 33.5756 39.9975 33.485 40.3834 33.485C42.0448 33.485 42.9737 34.6562 42.9737 36.7203V40.9456H40.2657V37.0244C40.2657 36.1639 39.9844 35.6462 39.3107 35.6462C38.8005 35.6462 38.5585 35.9439 38.4277 36.2286C38.3819 36.345 38.3688 36.5391 38.3688 36.6556V40.9521H35.6608V30.4244H35.6543V30.418Z" fill="white"/>
<path d="M46.8859 31.6667C46.8859 32.3655 46.343 32.922 45.4992 32.922C44.6554 32.922 44.1387 32.359 44.1387 31.6667C44.1387 30.9226 44.6816 30.3984 45.5123 30.3984C46.343 30.3984 46.8663 30.929 46.8859 31.6667ZM44.1452 40.952V33.6661H46.8532V40.952H44.1452Z" fill="white"/>
<path d="M48.0764 36.2604C48.0764 35.2833 48.0437 34.4551 48.0176 33.7692H50.3592L50.477 34.701H50.5228C50.791 34.3192 51.5105 33.6074 52.7336 33.6074C54.4539 33.6074 55.4023 34.7592 55.4023 36.7651V41.0615H52.6944V37.0886C52.6944 36.241 52.4131 35.7492 51.7525 35.7492C51.2227 35.7492 50.9872 36.1051 50.8694 36.3898C50.8106 36.5192 50.7975 36.7262 50.7975 36.9268V41.0615H48.0895V36.2668H48.0764V36.2604Z" fill="white"/>
<path d="M63.4668 39.2053C63.4668 39.93 63.5126 40.6159 63.5845 40.9848H61.1578L61.027 40.3442H60.9681C60.4579 40.9265 59.7253 41.1465 58.9339 41.1465C57.4229 41.1465 56.4941 40.0659 56.4941 38.8495C56.4941 36.8953 58.2798 36.0218 60.7719 36.0218V35.9636C60.7719 35.6659 60.5495 35.3424 59.5618 35.3424C58.7834 35.3424 57.9723 35.6077 57.4818 35.8795L57.0239 34.2036C57.4818 33.9512 58.5479 33.5371 60.0785 33.5371C62.6099 33.5371 63.4733 34.9348 63.4733 36.753V39.2053H63.4668ZM60.8635 37.6395C59.758 37.6395 59.1432 37.9371 59.1432 38.5842C59.1432 39.0371 59.4375 39.283 59.9085 39.283C60.2944 39.283 60.6999 39.0177 60.8373 38.5971C60.87 38.4936 60.87 38.3642 60.87 38.2283V37.6395H60.8635Z" fill="white"/>
<path d="M72.9912 34.9993C71.8073 34.6111 71.3102 34.3717 71.3102 33.854C71.3102 33.4852 71.526 33.0387 72.5595 33.0387C73.3837 33.0387 74.2274 33.3364 74.5937 33.4787L75.0581 31.5375C74.7311 31.4146 73.7107 31.0781 72.4025 31.0781C69.9627 31.0781 68.3209 32.3399 68.3209 34.2099C68.3013 35.4522 69.2563 36.4164 71.0812 36.9987C72.1867 37.3287 72.5595 37.5293 72.5595 38.0793C72.5595 38.8752 71.611 38.8752 71.2055 38.8752C70.3748 38.8752 69.289 38.5646 68.6153 38.254L68.1182 40.2922C68.9358 40.6611 70.1001 40.8811 71.2448 40.8811C73.9396 40.8811 75.5553 39.7358 75.5553 37.8205C75.5291 36.4293 74.7376 35.5558 72.9912 34.9928V34.9993Z" fill="white"/>
<path d="M76.2021 30.4629H78.9101V34.4682H78.9428C79.1783 34.1705 79.4857 33.9441 79.8128 33.7823C80.1398 33.6205 80.5454 33.5299 80.9313 33.5299C82.5927 33.5299 83.5215 34.7011 83.5215 36.7652V40.9905H80.8135V37.0694C80.8135 36.2088 80.5323 35.6911 79.8586 35.6911C79.3484 35.6911 79.1063 35.9888 78.9755 36.2735C78.9297 36.3899 78.9167 36.5841 78.9167 36.7005V40.997H76.2021V30.4694V30.4629Z" fill="white"/>
<path d="M92.0056 37.2583C92.0056 39.9113 90.0891 41.1407 88.0222 41.1407C85.8244 41.1407 84.1172 39.7624 84.1172 37.3942C84.1172 35.026 85.6609 33.5313 88.1726 33.5313C90.4816 33.5248 92.0056 35.0713 92.0056 37.2583ZM86.8971 37.3295C86.8971 38.423 87.2569 39.2577 88.0941 39.2577C88.8267 39.2577 89.2126 38.5007 89.2126 37.3295C89.2126 36.3201 88.8856 35.4013 88.0941 35.4013C87.198 35.4077 86.8971 36.3719 86.8971 37.3295Z" fill="white"/>
<path d="M92.764 36.2604C92.764 35.2833 92.7312 34.4551 92.7051 33.7692H95.0206L95.1383 34.701H95.171C95.727 33.9762 96.5446 33.6074 97.565 33.6074C99.0891 33.6074 100.587 34.9598 100.587 37.328C100.587 39.9939 98.834 41.2233 97.238 41.2233C96.4007 41.2233 95.7532 40.8998 95.485 40.5245H95.4523V43.9927H92.7574V36.2539L92.764 36.2604ZM95.4654 37.8715C95.4654 38.0333 95.4785 38.1821 95.5112 38.3115C95.6158 38.7904 96.0214 39.1851 96.5577 39.1851C97.3688 39.1851 97.8594 38.4992 97.8594 37.451C97.8594 36.4027 97.4408 35.6845 96.5904 35.6845C96.0475 35.6845 95.5897 36.1051 95.4981 36.6162C95.4654 36.7198 95.4654 36.8362 95.4654 36.9527V37.8651V37.8715Z" fill="white"/>
<path d="M19.95 0.316406L15.4563 18.4729L10.9561 0.316406H1.78569L0 27.3311H5.8738L7.27357 6.14641L12.5064 26.8976H18.3998L23.6326 6.14641L25.0323 27.3311H30.9061L29.1139 0.316406H19.95Z" fill="white"/>
<path d="M37.4406 18.4935C37.8527 23.5858 45.8654 22.7058 49.3387 21.6188L50.2021 26.0253C42.0912 29.0988 31.2725 27.0929 31.2725 16.6558C31.2725 2.73761 51.3664 1.22997 51.3664 15.9311C51.3664 17.0376 51.2421 18.0211 51.157 18.4935H37.4471H37.4406ZM45.2636 14.0417C45.2636 8.28938 37.4275 8.21173 37.4799 14.0417H45.2636Z" fill="white"/>
<path d="M58.6065 14.0404C58.5542 8.21039 66.3903 8.28804 66.3903 14.0404H58.6065ZM52.3991 16.648C52.3991 27.0851 63.2245 29.0845 71.3287 26.0175L70.4653 21.611C66.9921 22.698 58.9859 23.578 58.5673 18.4857H72.2772C72.3622 18.0198 72.4865 17.0298 72.4865 15.9233C72.4865 1.22216 52.3926 2.7298 52.3926 16.648H52.3991Z" fill="white"/>
<path d="M100.424 6.14648H96.8721V10.553H100.398L101.634 8.33354L100.424 6.14648Z" fill="white"/>
<path d="M95.8382 18.3182V0.310547H89.8402V6.14702H87.2107L86.7528 10.56H89.8467V19.3082C89.8467 23.9023 91.0175 27.3317 96.1522 27.3317C98.0098 27.3317 99.547 26.8658 100.404 26.5229V21.6053C97.3361 22.1682 95.8382 22.3688 95.8382 18.3182Z" fill="white"/>
<path d="M79.2309 11.7516C79.2309 9.10509 84.2086 9.95921 85.7195 10.561L86.1905 6.1545C81.1474 4.60803 73.3244 5.75979 73.3244 12.3339C73.2197 18.811 82.8677 17.931 82.8677 21.0174C82.8677 24.2721 75.3128 22.6092 73.6645 21.6192L72.8076 26.0257C78.4198 28.478 89.0816 27.9345 88.8003 20.5645C88.6957 13.421 79.2309 14.6827 79.2309 11.758V11.7516Z" fill="white"/>
<path d="M103.471 0L107.926 8.12706L103.471 16.2865H99.0234L103.478 8.12706L99.0234 0H103.471Z" fill="white"/>
</g>
<defs>
<clipPath id="clip0_12965_178541">
<rect width="108" height="44" fill="white"/>
</clipPath>
</defs>
</svg>
