<svg width="24" height="24" viewBox="0 0 24 24" fill="none" xmlns="http://www.w3.org/2000/svg">
<path d="M3.5 12C3.5 13.1162 3.71986 14.2215 4.14702 15.2528C4.57419 16.2841 5.20029 17.2211 5.98959 18.0104C6.77889 18.7997 7.71592 19.4258 8.74719 19.853C9.77846 20.2801 10.8838 20.5 12 20.5C13.1162 20.5 14.2215 20.2801 15.2528 19.853C16.2841 19.4258 17.2211 18.7997 18.0104 18.0104C18.7997 17.2211 19.4258 16.2841 19.853 15.2528C20.2801 14.2215 20.5 13.1162 20.5 12C20.5 9.74566 19.6045 7.58365 18.0104 5.98959C16.4163 4.39553 14.2543 3.5 12 3.5C9.74566 3.5 7.58365 4.39553 5.98959 5.98959C4.39553 7.58365 3.5 9.74566 3.5 12Z" stroke="#0061AF" stroke-width="1.5" stroke-linecap="round" stroke-linejoin="round"/>
<path d="M4.06665 9.16666H19.9333" stroke="#0061AF" stroke-width="1.5" stroke-linecap="round" stroke-linejoin="round"/>
<path d="M4.06665 14.8333H19.9333" stroke="#0061AF" stroke-width="1.5" stroke-linecap="round" stroke-linejoin="round"/>
<path d="M11.5278 3.5C9.93678 6.04963 9.09326 8.99465 9.09326 12C9.09326 15.0053 9.93678 17.9504 11.5278 20.5" stroke="#0061AF" stroke-width="1.5" stroke-linecap="round" stroke-linejoin="round"/>
<path d="M12.4722 3.5C14.0632 6.04963 14.9068 8.99465 14.9068 12C14.9068 15.0053 14.0632 17.9504 12.4722 20.5" stroke="#0061AF" stroke-width="1.5" stroke-linecap="round" stroke-linejoin="round"/>
</svg>
